<svg width="50" height="49" viewBox="0 0 50 49" fill="none" xmlns="http://www.w3.org/2000/svg">
<mask id="mask0_4015_3" style="mask-type:luminance" maskUnits="userSpaceOnUse" x="0" y="0" width="50" height="49">
<path d="M49.311 48.9739L0.337014 48.9739L0.337014 -8.28397e-05L49.311 -8.28397e-05L49.311 48.9739Z" fill="white"/>
</mask>
<g mask="url(#mask0_4015_3)">
<path d="M24.7589 1.51033C37.3995 1.51033 47.6756 11.7864 47.6756 24.427C47.6756 37.0624 37.3995 47.3385 24.7589 47.3385C12.1235 47.3385 1.84743 37.0624 1.84743 24.427C1.84743 11.7864 12.1235 1.51033 24.7589 1.51033ZM24.7589 48.9739C38.3006 48.9739 49.311 37.9635 49.311 24.427C49.311 10.8853 38.3006 -0.125083 24.7589 -0.125083C11.2224 -0.125083 0.212014 10.8853 0.212014 24.427C0.212014 37.9635 11.2224 48.9739 24.7589 48.9739Z" fill="white"/>
</g>
<path d="M29.0818 38.9062C29.3943 39.2344 29.9152 39.2396 30.2381 38.9271C30.5662 38.6146 30.5714 38.0937 30.2589 37.7708L17.4412 24.5416C17.3787 24.4739 17.3787 24.375 17.4412 24.3125L30.2589 11.0833C30.5714 10.7552 30.5662 10.2396 30.2381 9.92706C30.0818 9.77082 29.8735 9.69269 29.6704 9.69269C29.4568 9.69269 29.2433 9.77602 29.0818 9.94269L16.2693 23.1719C15.587 23.875 15.587 24.9739 16.2693 25.6771L29.0818 38.9062Z" fill="white"/>
</svg>
