<svg width="50" height="50" viewBox="0 0 50 50" fill="none" xmlns="http://www.w3.org/2000/svg">
<mask id="mask0_4015_2" style="mask-type:luminance" maskUnits="userSpaceOnUse" x="0" y="0" width="50" height="50">
<path d="M0.052124 0.130371H49.0261V49.1043H0.052124V0.130371Z" fill="white"/>
</mask>
<g mask="url(#mask0_4015_2)">
<path d="M24.6042 47.5939C11.9636 47.5939 1.68754 37.3179 1.68754 24.6772C1.68754 12.0418 11.9636 1.76579 24.6042 1.76579C37.2396 1.76579 47.5157 12.0418 47.5157 24.6772C47.5157 37.3179 37.2396 47.5939 24.6042 47.5939ZM24.6042 0.130371C11.0625 0.130371 0.052124 11.1408 0.052124 24.6772C0.052124 38.2189 11.0625 49.2293 24.6042 49.2293C38.1407 49.2293 49.1511 38.2189 49.1511 24.6772C49.1511 11.1408 38.1407 0.130371 24.6042 0.130371Z" fill="white"/>
</g>
<path d="M20.2813 10.198C19.9688 9.86989 19.4479 9.86468 19.125 10.1772C18.7969 10.4897 18.7917 11.0105 19.1042 11.3334L31.9219 24.5626C31.9844 24.6303 31.9844 24.7293 31.9219 24.7918L19.1042 38.0209C18.7917 38.3491 18.7969 38.8647 19.125 39.1772C19.2813 39.3334 19.4896 39.4116 19.6927 39.4116C19.9063 39.4116 20.1198 39.3282 20.2813 39.1616L33.0938 25.9324C33.7761 25.2293 33.7761 24.1303 33.0938 23.4272L20.2813 10.198Z" fill="white"/>
</svg>
