<svg width="34" height="26" viewBox="0 0 34 26" fill="none" xmlns="http://www.w3.org/2000/svg">
<mask id="mask0_4017_87" style="mask-type:luminance" maskUnits="userSpaceOnUse" x="0" y="0" width="34" height="26">
<path d="M0 0.666748H33.7605V25.3643H0V0.666748Z" fill="white"/>
</mask>
<g mask="url(#mask0_4017_87)">
<path d="M5.57278 0.666748C2.51396 0.666748 0.0112915 3.16374 0.0112915 6.22256V19.7177C0.0112915 22.7708 2.51396 25.2735 5.57278 25.2735H27.796C30.8548 25.2735 33.3518 22.7708 33.3518 19.7177V6.22256C33.3518 3.16374 30.8548 0.666748 27.796 0.666748H5.57278ZM5.57278 3.04457H27.796C29.5723 3.04457 30.9683 4.44061 30.9683 6.22256V19.7177C30.9683 21.494 29.5723 22.89 27.796 22.89H5.57278C3.79083 22.89 2.39479 21.494 2.39479 19.7177V6.22256C2.39479 4.44061 3.79083 3.04457 5.57278 3.04457ZM13.9434 6.61981C13.6029 6.60846 13.3191 6.72196 13.0751 6.95463C12.8368 7.18731 12.7119 7.47106 12.7119 7.81156V18.1287C12.7119 18.4351 12.8141 18.7019 13.0184 18.9289C13.2227 19.1559 13.478 19.2864 13.7788 19.3204C14.0285 19.3431 14.2555 19.2977 14.4768 19.1842L23.9995 14.0257C24.4194 13.7987 24.6237 13.4468 24.6237 12.9758C24.6237 12.4991 24.4194 12.1529 23.9995 11.9259L14.4768 6.76736C14.3066 6.67656 14.1307 6.62548 13.9434 6.61981ZM15.0954 9.8205L20.9236 12.9701L15.0954 16.1311V9.8205Z" fill="white"/>
</g>
</svg>
